<svg width="24" height="24" viewBox="0 0 24 24" fill="none" xmlns="http://www.w3.org/2000/svg">
<path d="M11.7498 5.99991C11.7503 6.09845 11.7311 6.19609 11.6933 6.2871C11.6555 6.37811 11.5999 6.46067 11.5298 6.52991L6.05983 11.9999L11.5298 17.4699C11.6623 17.6121 11.7344 17.8001 11.731 17.9944C11.7276 18.1887 11.6489 18.3741 11.5114 18.5115C11.374 18.6489 11.1887 18.7277 10.9944 18.7311C10.8 18.7345 10.612 18.6624 10.4698 18.5299L4.46983 12.5299C4.32938 12.3893 4.25049 12.1987 4.25049 11.9999C4.25049 11.8012 4.32938 11.6105 4.46983 11.4699L10.4698 5.46991C10.6105 5.32946 10.8011 5.25057 10.9998 5.25057C11.1986 5.25057 11.3892 5.32946 11.5298 5.46991C11.5999 5.53915 11.6555 5.6217 11.6933 5.71272C11.7311 5.80373 11.7503 5.90137 11.7498 5.99991Z" fill="black"/>
<path d="M19.75 12C19.7474 12.1981 19.6676 12.3874 19.5275 12.5275C19.3874 12.6676 19.1981 12.7474 19 12.75H5C4.80109 12.75 4.61032 12.671 4.46967 12.5303C4.32902 12.3897 4.25 12.1989 4.25 12C4.25 11.8011 4.32902 11.6103 4.46967 11.4697C4.61032 11.329 4.80109 11.25 5 11.25H19C19.1981 11.2526 19.3874 11.3324 19.5275 11.4725C19.6676 11.6126 19.7474 11.8019 19.75 12Z" fill="black"/>
</svg>
